<svg xmlns="http://www.w3.org/2000/svg" viewBox="0.0 0.0 500.0 444.5280238045634"><path d="M249.99765291773687,444.5280238045634 L237.6317761281616,441.640741738509 L235.3119016552141,440.48558500262055 L231.29533168286108,438.4212365015318 L225.7259550562853,435.4591239394094 L218.7476606206696,431.6106750204202 L210.50433722119672,426.88731744873104 L201.13987370304952,421.3004789285089 L190.79815891141075,414.8615871639204 L179.62308169146328,407.58206985913245 L167.7585308883898,399.4733547183119 L155.34839534737318,390.5468694456256 L142.53656391359618,380.8140417452403 L129.46692543224162,370.28629932132276 L116.28336874849226,358.97506987803996 L103.12978270753105,346.89178111955874 L90.15005615454052,334.04786075004586 L77.4880779347037,320.45473647366805 L65.2877368932033,306.12383599459235 L53.69292187522209,291.0665870169854 L42.84752172594289,275.2944172450141 L32.89542529054852,258.81875438284544 L23.98052141422176,241.65102613464597 L16.246698942145425,223.80266020458268 L9.837846719502231,205.28508429682233 L4.897853591475125,186.10972611553186 L1.5706084032467642,166.28801336487794 L0.0,145.83137374902745 L0.2618628895933174,128.70922078927887 L2.2053609949886175,113.59401929943255 L5.7924933395218945,98.78257161505228 L10.980108659793839,84.45305144677012 L17.70580274720593,70.77783517766204 L25.888669136862593,57.921428268523016 L35.4302723686172,46.03848634608234 L46.21583211245706,35.2719547793991 L58.11560391383937,25.751349124328883 L70.98643994935722,17.591197121385235 L84.67351101768945,10.889660988918909 L99.0121690512135,5.727356584683888 L113.82992774327302,2.166383640638401 L128.9485374652245,0.2495787367319405 L144.18612951313352,0.0 L159.35940388998935,1.4206497277579473 L174.28583430560298,4.49443827158668 L188.78586386922962,9.184389616567104 L202.6850650619206,15.434086182755388 L215.81623800530542,23.168347498178072 L228.02142178576347,32.294134579278115 L239.17608814053682,42.679688950416526 L249.9575465707807,53.4611473806604 L260.73900500102457,42.75990164432877 L271.8869250630376,32.36697884158867 L284.08465442294397,23.231230408821524 L297.20950868803925,15.486251294302345 L311.1036029549877,9.225209410918971 L325.5997987789751,4.523421708678917 L340.52371475886895,1.437448152506757 L355.6958242512273,0.004411336434572099 L370.9336149787919,0.24154991885904667 L386.0537845545433,2.1460112507978266 L400.87444551034866,5.69488569171495 L415.2173133049004,10.845482200114755 L428.9098509903921,17.535841883698236 L441.7873447387512,25.685483331351055 L453.69488525996934,35.19637076102207 L464.48923127713886,45.95409333719706 L474.04053264159734,57.8292414714152 L482.233892360037,70.6789635496774 L488.9707487432372,84.34868436015701 L494.17006104991685,98.67396454945653 L497.76928436305286,113.48247873915518 L499.72512197142817,128.5960885069768 L500.0,145.65406804237935 L498.44230631667165,166.05290354906796 L495.12615852925944,185.82702310253802 L490.1955516261469,204.96436889176763 L483.7944805957181,223.45288310573497 L476.06694042635706,241.2805079334183 L467.1569261064474,258.43518556379576 L457.2084326243732,274.90485818584557 L446.36545496851807,290.67746798854586 L434.7719881272662,305.7409571608746 L422.5720270890011,320.0832678918104 L409.909566842107,333.69234237033123 L396.92860237496745,346.55612278541537 L383.77312867596663,358.6625513260409 L370.5871407334882,369.9995701811859 L357.51463353591606,380.5551215398288 L344.6996020716343,390.31714759094757 L332.28604132902655,399.27359052352045 L320.41794629647666,407.41239252652576 L309.2393119623688,414.7214957889415 L298.8941333150865,421.18884249974593 L289.52640534301395,426.8023748479172 L281.2801230345347,431.5500350224336 L274.29928137803284,435.4197652122732 L268.72787536189213,438.39950760641426 L264.7098999744965,440.4772043938348 L262.38935020422997,441.64079776351326 Z" fill="none" stroke="black" /><circle cx="237.91730181000224" cy="389.01889130080446" r="22.35519723923672" fill="rgb(61,17,79)" /><circle cx="146.02804737830212" cy="381.39292914834016" r="24.890499725027155" fill="rgb(65,248,177)" /><circle cx="442.9394978969312" cy="119.80896657063938" r="12.991431302225752" fill="rgb(175,184,229)" /><circle cx="234.24899389999894" cy="191.46417348954074" r="31.249372187861685" fill="rgb(209,154,128)" /><circle cx="384.0806768312316" cy="9.674025919350624" r="24.4885958795186" fill="rgb(68,196,104)" /><circle cx="183.98476302271365" cy="340.51685067900496" r="14.706430138780046" fill="rgb(171,130,182)" /><circle cx="289.3281749957728" cy="258.5547283155864" r="47.99900944130561" fill="rgb(183,232,67)" /><circle cx="307.8968086125789" cy="402.1815412075616" r="42.14334614721916" fill="rgb(117,229,59)" /><circle cx="49.92342869089222" cy="149.54491451476022" r="34.116446425071054" fill="rgb(252,234,167)" /><circle cx="294.9324615495416" cy="179.0965771872593" r="7.018281021203089" fill="rgb(14,142,12)" /><circle cx="296.96023235820707" cy="74.06989446172136" r="29.487497507073726" fill="rgb(8,106,147)" /><circle cx="353.7900229087014" cy="227.49650540995682" r="15.305926470795097" fill="rgb(211,69,77)" /><circle cx="424.7763472566498" cy="65.04151776423585" r="8.87734922847913" fill="rgb(40,130,109)" /><circle cx="381.6854937380437" cy="306.8442044623714" r="47.878110933089786" fill="rgb(23,183,237)" /><circle cx="292.6035761815487" cy="323.13941200731676" r="15.545511458930406" fill="rgb(205,209,14)" /><circle cx="118.55567126730732" cy="82.50370881084945" r="34.29616972796036" fill="rgb(226,146,69)" /><circle cx="59.20836881374103" cy="244.92327986320137" r="19.60274927311056" fill="rgb(249,92,204)" /><circle cx="445.9803211622554" cy="243.89193292203282" r="14.427784794696716" fill="rgb(102,127,165)" /><circle cx="143.2781977440209" cy="223.3890949900664" r="38.65987065126789" fill="rgb(249,13,243)" /><circle cx="467.8351602277503" cy="111.70451534199735" r="9.242590019913205" fill="rgb(196,165,39)" /><circle cx="100.32996844376252" cy="158.62945485606826" r="8.100006071765137" fill="rgb(194,43,189)" /><circle cx="472.82729720341695" cy="238.93821998361446" r="6.523441084210457" fill="rgb(248,105,226)" /><circle cx="56.393645820214275" cy="289.7093591258564" r="19.90074959739498" fill="rgb(143,221,63)" /><circle cx="357.65102422938423" cy="106.8108801604015" r="36.97498261088733" fill="rgb(7,56,148)" /><circle cx="138.84966304079" cy="25.557589549018875" r="18.980892338382176" fill="rgb(20,120,163)" /><circle cx="434.23559904511455" cy="80.4529147707729" r="6.108856787763237" fill="rgb(91,97,247)" /><circle cx="475.23785083351555" cy="166.23818127349267" r="22.84753353314229" fill="rgb(4,4,216)" /><circle cx="409.5640121805756" cy="148.06150047893777" r="13.229005439414323" fill="rgb(84,97,205)" /><circle cx="194.07206283970874" cy="17.543728239201332" r="29.544506608448557" fill="rgb(37,200,92)" /><circle cx="73.4977675151549" cy="206.22148943187705" r="15.836102840234618" fill="rgb(165,40,193)" /><circle cx="343.3271698243137" cy="356.858811362975" r="7.984584279579458" fill="rgb(155,42,44)" /><circle cx="313.18832389758416" cy="152.26979117160798" r="7.513884414237781" fill="rgb(29,186,25)" /><circle cx="267.91689313885865" cy="124.64911391470689" r="6.815045220035586" fill="rgb(31,103,185)" /><circle cx="167.52152410683456" cy="95.69993825592306" r="15.650284603892654" fill="rgb(163,178,92)" /><circle cx="391.89265769132015" cy="227.66407083124056" r="9.426508640617229" fill="rgb(41,64,172)" /><circle cx="247.60430660483146" cy="325.74849153319883" r="29.130974105085627" fill="rgb(136,111,169)" /><circle cx="224.2582131898764" cy="240.8462654194313" r="18.70068917630342" fill="rgb(202,173,16)" /><circle cx="147.6475733152984" cy="324.86137908698583" r="18.519697030453386" fill="rgb(230,181,150)" /><circle cx="237.2826666068138" cy="439.4495342505045" r="22.93429171923689" fill="rgb(76,85,105)" /><circle cx="427.2967652210785" cy="202.95620781071753" r="10.495720619180986" fill="rgb(173,5,81)" /><circle cx="0.3324851602856671" cy="136.0449913104301" r="7.1137455924031014" fill="rgb(41,217,155)" /><circle cx="90.27394533656386" cy="287.4325078368826" r="11.37617343051462" fill="rgb(66,232,92)" /><circle cx="10.916826298477512" cy="119.60108744862974" r="8.407496825888433" fill="rgb(110,82,183)" /><circle cx="235.21463421719957" cy="44.285203912708724" r="11.324368847421553" fill="rgb(12,26,214)" /><circle cx="217.5390292905477" cy="131.01273911789124" r="26.207953132256048" fill="rgb(8,75,116)" /><circle cx="167.00533071960007" cy="170.82591120779276" r="9.16639243656205" fill="rgb(89,47,209)" /><circle cx="404.2216074144201" cy="53.973905254256266" r="14.210739396991688" fill="rgb(14,80,73)" /><circle cx="361.15948964163755" cy="167.20891063714396" r="21.587396816997593" fill="rgb(154,254,18)" /><circle cx="441.20827728438917" cy="185.74692750735613" r="5.84931856598799" fill="rgb(70,149,46)" /><circle cx="348.16828346361564" cy="373.7214426156336" r="5.081568346275069" fill="rgb(80,85,210)" /><circle cx="186.5282948668018" cy="211.9820163656314" r="5.874454825100052" fill="rgb(141,206,160)" /><circle cx="172.35879410708816" cy="59.596996206990845" r="9.519699215738452" fill="rgb(94,123,12)" /><circle cx="311.4324624900857" cy="183.26886430507813" r="9.728576319027745" fill="rgb(158,228,69)" /><circle cx="460.98783199035466" cy="63.376513836696795" r="7.634587190412513" fill="rgb(178,200,184)" /><circle cx="348.1142055323665" cy="44.56380310308296" r="14.164724511018793" fill="rgb(220,43,117)" /><circle cx="415.24658648305024" cy="185.78770511803765" r="9.925021184444695" fill="rgb(209,18,109)" /><circle cx="39.25552285145728" cy="65.99341876898029" r="42.340797851489945" fill="rgb(208,100,88)" /><circle cx="446.3099732211461" cy="200.90698361534652" r="8.38637613340135" fill="rgb(197,249,164)" /><circle cx="416.08628387847307" cy="123.00471365954448" r="11.083430449262602" fill="rgb(106,240,222)" /><circle cx="97.14690683833183" cy="17.795582611924154" r="14.331390821607915" fill="rgb(57,122,254)" /><circle cx="205.94353512620216" cy="386.1013965099253" r="9.25595911182356" fill="rgb(255,155,1)" /><circle cx="385.53795271982597" cy="146.34663584613673" r="7.739272884488528" fill="rgb(105,193,123)" /><circle cx="33.841911805082226" cy="200.73690206105258" r="14.24360976491096" fill="rgb(136,77,160)" /><circle cx="286.9112674302838" cy="344.63833509582764" r="5.04980111093516" fill="rgb(26,98,237)" /><circle cx="446.79949796800014" cy="220.8574519901072" r="5.855077267737744" fill="rgb(212,204,205)" /><circle cx="163.0138149981677" cy="40.81948400973273" r="6.6822366924654855" fill="rgb(137,230,45)" /><circle cx="225.52791844666848" cy="79.34352251066817" r="13.237679917300602" fill="rgb(19,223,104)" /><circle cx="128.00189132876366" cy="293.93033166954996" r="15.597564365470674" fill="rgb(211,111,246)" /><circle cx="122.34120018272576" cy="143.14026242022618" r="11.52837701464916" fill="rgb(224,153,141)" /><circle cx="427.9765240014854" cy="255.57986081158742" r="5.514968530326454" fill="rgb(248,184,124)" /><circle cx="180.41993950322487" cy="282.30571755915713" r="24.387969635360058" fill="rgb(66,122,128)" /><circle cx="153.93670123336844" cy="131.63074221426353" r="5.297668704061102" fill="rgb(186,29,97)" /><circle cx="4.439655083857296" cy="180.1937582189791" r="6.2928248741480575" fill="rgb(179,141,10)" /><circle cx="98.21616833515084" cy="269.75674486215286" r="7.14259458444262" fill="rgb(83,84,232)" /><circle cx="323.9344345080664" cy="21.213364011489375" r="10.583389442082412" fill="rgb(6,3,186)" /><circle cx="137.155067423953" cy="171.65074552999806" r="5.322075717834019" fill="rgb(108,207,153)" /><circle cx="211.26856131686355" cy="343.0873140553317" r="7.243284463917657" fill="rgb(104,117,11)" /><circle cx="211.8530813793625" cy="368.78321147711995" r="6.344690303219503" fill="rgb(220,33,73)" /><circle cx="266.6446304074343" cy="153.15341176589476" r="13.885298533161684" fill="rgb(146,224,58)" /><circle cx="98.98865695590992" cy="338.8336359797254" r="19.27327141514079" fill="rgb(243,171,87)" /><circle cx="1.8922874198873396" cy="154.23110172702937" r="6.208108103939256" fill="rgb(1,99,164)" /><circle cx="195.3739638883355" cy="72.49317963607888" r="16.802665284584293" fill="rgb(188,167,202)" /><circle cx="237.10493291280338" cy="283.3484148210772" r="8.295045924038352" fill="rgb(249,177,109)" /><circle cx="448.00863899909154" cy="50.751928220348375" r="6.927371449782087" fill="rgb(137,219,163)" /><circle cx="281.9535524852381" cy="41.363420371933245" r="6.293248879378739" fill="rgb(246,113,45)" /><circle cx="115.40356360055048" cy="126.30996254842273" r="6.150571520627394" fill="rgb(226,76,183)" /><circle cx="472.81870716023496" cy="71.01840159715537" r="5.850953987447122" fill="rgb(67,158,122)" /><circle cx="360.47211318014575" cy="204.37761206117614" r="6.795881511994913" fill="rgb(209,5,126)" /><circle cx="252.40976988464791" cy="115.62458494654861" r="7.339846909120524" fill="rgb(89,220,250)" /><circle cx="168.52980059122157" cy="148.19524760010515" r="6.169609548744788" fill="rgb(49,146,87)" /><circle cx="429.1818737498434" cy="20.272081127836856" r="11.326299759108641" fill="rgb(236,93,16)" /><circle cx="187.68576616634707" cy="197.07173746955235" r="5.959496037077596" fill="rgb(145,82,254)" /><circle cx="219.5032702231057" cy="284.1008335253481" r="5.2472110468710635" fill="rgb(15,51,205)" /><circle cx="353.68099301475075" cy="251.80705688968413" r="8.04867361752472" fill="rgb(224,53,167)" /><circle cx="127.5255049550288" cy="163.3324271421512" r="5.080319195308694" fill="rgb(135,208,110)" /><circle cx="480.6919314827688" cy="198.36969336294024" r="6.7417884931277" fill="rgb(153,35,105)" /><circle cx="101.75973307420122" cy="187.23704358532297" r="11.790688409966041" fill="rgb(68,226,44)" /><circle cx="294.8919050177131" cy="127.86882252868764" r="17.012536412134736" fill="rgb(32,31,95)" /><circle cx="429.4384294929918" cy="226.07712967441358" r="5.734397923083411" fill="rgb(74,198,179)" /><circle cx="307.4087561109103" cy="18.141950019897482" r="5.862671624875521" fill="rgb(124,96,30)" /><circle cx="413.7890568251512" cy="230.6964218698922" r="10.053462644432539" fill="rgb(70,45,188)" /><circle cx="236.20198452244102" cy="267.3919811827558" r="5.5145230657432736" fill="rgb(12,206,79)" /><circle cx="498.0557769038552" cy="116.9850527032672" r="10.805433824489333" fill="rgb(72,214,91)" /><circle cx="346.29780852331817" cy="2.0144760708394167" r="12.399407673581988" fill="rgb(179,213,222)" /><circle cx="208.48059056841635" cy="308.6406716891825" r="5.878705022893917" fill="rgb(221,20,153)" /><circle cx="255.8991975065683" cy="71.0135455347726" r="9.7255167919225" fill="rgb(156,91,90)" /><circle cx="410.4683566932416" cy="94.59011707351743" r="14.870364907456793" fill="rgb(89,27,65)" /><circle cx="452.24120910382885" cy="92.25140312867582" r="9.9270386204331" fill="rgb(239,136,151)" /><circle cx="319.9942222091794" cy="199.270435657136" r="7.1420047321206495" fill="rgb(84,7,83)" /><circle cx="89.21419093294647" cy="240.78074588753728" r="7.51853978030814" fill="rgb(42,146,158)" /><circle cx="464.72855928981136" cy="215.9949453108384" r="5.94125973755951" fill="rgb(147,144,96)" /><circle cx="121.51208196770736" cy="178.6859867354381" r="7.202162554540935" fill="rgb(102,194,211)" /><circle cx="457.52907662920336" cy="135.3680097704973" r="6.999280376668164" fill="rgb(102,119,151)" /><circle cx="318.5675398009373" cy="339.0451163142925" r="13.947385691038617" fill="rgb(74,138,38)" /><circle cx="191.44612368006625" cy="108.83812317063621" r="7.026428867419366" fill="rgb(247,69,0)" /><circle cx="303.7942431833571" cy="201.90963697392587" r="8.346805696904962" fill="rgb(159,247,51)" /><circle cx="448.35018963656387" cy="149.08998217842733" r="8.434210522384555" fill="rgb(14,10,182)" /><circle cx="336.3097288809651" cy="195.1386376009673" r="7.034733431646826" fill="rgb(122,219,116)" /><circle cx="188.4139648013553" cy="393.8609332731565" r="6.625348931197594" fill="rgb(34,170,102)" /><circle cx="405.2524234519565" cy="200.92320353343817" r="5.034982525555418" fill="rgb(115,191,100)" /><circle cx="448.5759440384469" cy="73.28751380224" r="6.950057695738048" fill="rgb(161,235,27)" /><circle cx="377.8792244082382" cy="60.60866031822231" r="8.433302604416268" fill="rgb(196,39,94)" /><circle cx="203.54565471942308" cy="222.11361691704218" r="7.127214435177116" fill="rgb(147,1,136)" /><circle cx="78.7236774102688" cy="315.4713444646917" r="7.345054716855721" fill="rgb(253,252,35)" /><circle cx="108.06034208508191" cy="260.46565216685815" r="6.26947056183174" fill="rgb(226,23,102)" /><circle cx="392.5823491466779" cy="195.07902769011628" r="7.565984877609454" fill="rgb(37,122,225)" /><circle cx="94.87166258791846" cy="38.07530104364548" r="5.641495167815443" fill="rgb(225,44,211)" /><circle cx="255.0214682492982" cy="365.28546385032183" r="5.461856620557056" fill="rgb(21,215,243)" /><circle cx="483.42510759063293" cy="77.42508013825689" r="5.520136498455188" fill="rgb(74,243,161)" /><circle cx="450.0019672200901" cy="268.15757732956524" r="5.297145659572101" fill="rgb(85,226,7)" /><circle cx="255.62018904162508" cy="97.1117705827715" r="10.690081656557158" fill="rgb(1,233,238)" /><circle cx="291.0978208737254" cy="158.56947015650513" r="10.95957643019732" fill="rgb(32,65,154)" /><circle cx="441.6480573752577" cy="294.1451939074668" r="12.73714069630339" fill="rgb(105,180,37)" /><circle cx="383.46482433838446" cy="247.79074298763823" r="10.366026993180267" fill="rgb(189,126,63)" /><circle cx="434.35111137500354" cy="267.12847301244744" r="7.6309563625332455" fill="rgb(189,49,245)" /><circle cx="320.12805754402183" cy="303.54127098002874" r="5.083367910507413" fill="rgb(139,24,53)" /><circle cx="71.22525971952248" cy="27.497751834638063" r="6.283132383288733" fill="rgb(129,180,56)" /><circle cx="211.26265978496522" cy="265.2468022758191" r="7.498131705046837" fill="rgb(158,1,213)" /><circle cx="263.80055662855113" cy="44.50482117822023" r="10.913692927939437" fill="rgb(7,202,155)" /><circle cx="360.36879830408594" cy="367.47708446333644" r="5.647377196883794" fill="rgb(162,105,95)" /><circle cx="219.96735737162132" cy="297.20170823041445" r="5.961789390780753" fill="rgb(108,230,208)" /><circle cx="181.32115952690575" cy="175.51054226284532" r="5.830699161225836" fill="rgb(126,167,60)" /><circle cx="219.7045824045051" cy="409.83925247254814" r="5.193053770333776" fill="rgb(116,0,77)" /><circle cx="97.33837749158825" cy="137.79151299833097" r="7.708126079563645" fill="rgb(161,232,51)" /><circle cx="94.25299767179301" cy="224.9299205542397" r="6.945450904848871" fill="rgb(64,83,181)" /><circle cx="296.7202238264834" cy="350.5057993573876" r="5.801784480511153" fill="rgb(69,196,90)" /><circle cx="485.25909882592646" cy="99.92388077714558" r="7.4078387107561525" fill="rgb(51,118,132)" /><circle cx="198.19785609264667" cy="415.2136800263752" r="7.599280316813371" fill="rgb(234,54,86)" /><circle cx="376.2240095718198" cy="213.95325935751376" r="5.3881353905862115" fill="rgb(53,209,212)" /><circle cx="80.99575516339708" cy="261.5689810636493" r="6.344021229746858" fill="rgb(12,10,152)" /><circle cx="396.76772964518705" cy="172.3648054362278" r="8.449591211343774" fill="rgb(202,111,75)" /><circle cx="178.1201094204103" cy="406.1885408275217" r="5.346341418709028" fill="rgb(169,226,240)" /><circle cx="160.30187268287122" cy="71.92419129056918" r="5.229571942810863" fill="rgb(66,104,31)" /><circle cx="333.736826520321" cy="154.259441970312" r="6.776471405359982" fill="rgb(169,196,152)" /><circle cx="182.03128046105815" cy="367.93717654103716" r="5.2170556634911645" fill="rgb(17,153,235)" /><circle cx="144.0932689925889" cy="275.6142109545632" r="7.525304335076735" fill="rgb(208,140,213)" /><circle cx="151.74468321641544" cy="291.2559361246415" r="5.5910144647333055" fill="rgb(249,4,175)" /><circle cx="435.2521213224924" cy="169.85072588283563" r="6.873225255043009" fill="rgb(77,130,119)" /><circle cx="78.77928692351821" cy="93.07299890459747" r="5.194983203126526" fill="rgb(14,4,167)" /><circle cx="489.3039594331443" cy="132.90711807933243" r="6.291911237280886" fill="rgb(232,180,20)" /><circle cx="212.07360865339868" cy="421.2871077168734" r="5.856754692622358" fill="rgb(5,223,148)" /><circle cx="330.4207215853264" cy="174.1409597865763" r="8.477933010929643" fill="rgb(112,249,217)" /><circle cx="320.2232895581039" cy="132.4618203784954" r="7.12989437076002" fill="rgb(71,249,96)" /><circle cx="281.60488765623734" cy="199.28339224949062" r="6.7267093653646395" fill="rgb(119,40,185)" /><circle cx="192.37541026625894" cy="163.43133578191578" r="5.647164386446557" fill="rgb(59,7,159)" /><circle cx="374.4372731544192" cy="364.74718190838814" r="5.563536035822326" fill="rgb(47,15,90)" /><circle cx="100.66373646825633" cy="310.8678419776879" r="5.3842190506838445" fill="rgb(161,173,179)" /><circle cx="168.50634219109773" cy="310.69226065863404" r="5.665107084598943" fill="rgb(39,84,1)" /><circle cx="195.17162113480308" cy="254.8003143167695" r="6.082238963674822" fill="rgb(98,230,105)" /><circle cx="152.23256922614493" cy="160.90673213273132" r="6.963936906669602" fill="rgb(81,126,210)" /><circle cx="463.4763861739887" cy="49.13432363680733" r="5.270225050046873" fill="rgb(123,73,10)" /><circle cx="250.57202409785705" cy="138.51513660203017" r="5.293818074776247" fill="rgb(35,85,64)" /><circle cx="315.004917690507" cy="42.29525581163553" r="5.436193578411354" fill="rgb(45,12,3)" /><circle cx="80.0837899031947" cy="122.6133555752699" r="5.284748096196003" fill="rgb(203,183,137)" /><circle cx="276.1042850550237" cy="361.0589946984371" r="8.29367724501395" fill="rgb(114,173,133)" /><circle cx="188.72826337594628" cy="239.13677089170514" r="6.297061014863431" fill="rgb(84,13,228)" /><circle cx="26.424156737548888" cy="235.97587152015282" r="7.246466782893339" fill="rgb(172,38,18)" /><circle cx="418.343210842017" cy="250.3915661589266" r="5.064083101725886" fill="rgb(53,229,53)" /><circle cx="244.15546278467448" cy="81.33324701160008" r="5.344928540549495" fill="rgb(64,30,186)" /><circle cx="108.1438972080982" cy="283.04662851777226" r="5.75022189797782" fill="rgb(68,87,31)" /><circle cx="154.03084016603063" cy="56.653723501978504" r="8.399398477505882" fill="rgb(3,125,232)" /><circle cx="115.06867787240216" cy="3.868736459395353" r="6.916669017089235" fill="rgb(113,86,168)" /><circle cx="475.4083456321886" cy="86.07394198724019" r="5.205664597065934" fill="rgb(244,212,16)" /><circle cx="268.16348331318943" cy="438.58515749682806" r="7.196999952260607" fill="rgb(226,80,204)" /><circle cx="209.40976883430002" cy="326.0234963854679" r="7.867788316562096" fill="rgb(228,246,186)" /><circle cx="162.66010280544936" cy="351.98646869859033" r="6.456204592655683" fill="rgb(200,231,237)" /><circle cx="38.978962516795555" cy="225.54417881330582" r="6.2024803783071185" fill="rgb(141,126,200)" /><circle cx="25.17088780306359" cy="220.15248650909518" r="6.9886931005593205" fill="rgb(156,95,213)" /><circle cx="175.7506242348069" cy="121.06474283956766" r="8.198344049757361" fill="rgb(162,164,243)" /><circle cx="181.574039471859" cy="134.9893440480041" r="5.751434331795693" fill="rgb(240,195,16)" /><circle cx="258.480239418301" cy="416.57379998128226" r="7.26764988351078" fill="rgb(9,194,149)" /><circle cx="433.0780050057394" cy="151.5674146358192" r="5.0204569076355225" fill="rgb(16,236,4)" /><circle cx="292.65742147808237" cy="20.60684056744246" r="7.578364051389492" fill="rgb(139,158,76)" /><circle cx="335.85014546768724" cy="66.61044429733266" r="6.5493474174750546" fill="rgb(155,100,184)" /><circle cx="301.458717002988" cy="39.289535418779145" r="5.233149906328488" fill="rgb(213,67,218)" /><circle cx="404.522458645668" cy="253.35390530669312" r="5.929065869097907" fill="rgb(67,198,196)" /><circle cx="96.82111846127528" cy="120.08051661016168" r="5.170420682727673" fill="rgb(212,36,40)" /><circle cx="155.89146257915505" cy="5.046139346586514" r="6.555133076264443" fill="rgb(246,90,44)" /><circle cx="345.35818967891606" cy="23.683495900035233" r="6.81434913642381" fill="rgb(124,216,226)" /><circle cx="76.63254203949921" cy="112.74245828948138" r="5.005269527425781" fill="rgb(130,25,1)" /><circle cx="369.2120414866699" cy="38.158351297552876" r="7.49921202433305" fill="rgb(10,76,143)" /><circle cx="118.76022966228544" cy="322.5904514603585" r="5.686446731602183" fill="rgb(24,58,237)" /><circle cx="136.55446221534118" cy="119.46589499124629" r="6.767560468489389" fill="rgb(98,64,229)" /><circle cx="212.3211452221509" cy="53.43695422522008" r="6.41728004283139" fill="rgb(201,16,17)" /><circle cx="153.32142834439338" cy="116.87825967163543" r="7.005707351346118" fill="rgb(243,5,136)" /><circle cx="113.24573100542274" cy="36.87839337550603" r="8.157558475976508" fill="rgb(117,37,1)" /><circle cx="327.9428279953156" cy="40.951804448507154" r="5.441629588213909" fill="rgb(253,247,240)" /><circle cx="463.6841256407352" cy="253.18633976063128" r="5.138291543829063" fill="rgb(229,226,232)" /><circle cx="87.34342049540078" cy="171.89164098676932" r="6.338361920118132" fill="rgb(36,61,154)" /><circle cx="98.24587379648165" cy="251.46226590013248" r="6.156104270694708" fill="rgb(109,224,113)" /><circle cx="142.45650277073585" cy="147.10708039727746" r="6.981559794848419" fill="rgb(38,213,89)" /><circle cx="193.37274709283443" cy="315.12000137249544" r="5.059208825941566" fill="rgb(60,198,232)" /><circle cx="198.18612262941159" cy="176.06268537176575" r="7.501093006775089" fill="rgb(95,166,95)" /><circle cx="415.02234525088255" cy="265.48570431354307" r="5.016016080269211" fill="rgb(153,51,223)" /><circle cx="468.4995246874369" cy="95.21987223528511" r="5.065546047433266" fill="rgb(206,95,169)" /><circle cx="445.8453278859281" cy="32.46669315818828" r="8.413162414216847" fill="rgb(78,159,89)" /><circle cx="350.57839016768816" cy="192.64531594169583" r="5.378704009382144" fill="rgb(108,157,105)" /><circle cx="485.04401601345904" cy="218.3057206293548" r="9.113116650363596" fill="rgb(4,216,181)" /><circle cx="423.6591327000892" cy="39.251436070228635" r="5.428789033052256" fill="rgb(111,136,155)" /><circle cx="274.36108605321414" cy="175.0184204481518" r="6.558872816229636" fill="rgb(227,90,60)" /><circle cx="393.89448499749574" cy="76.26462290639259" r="7.542393621978194" fill="rgb(38,144,28)" /><circle cx="99.67575452731154" cy="206.72415137202916" r="6.640378107647269" fill="rgb(72,255,160)" /><circle cx="242.54955358672987" cy="61.75809727954435" r="5.801632986536133" fill="rgb(6,69,137)" /><circle cx="265.66028010033244" cy="372.8785700942729" r="6.42565786585444" fill="rgb(205,126,40)" /><circle cx="405.6418467492684" cy="33.4024022566475" r="6.1152090787898015" fill="rgb(242,194,100)" /><circle cx="182.78303382823825" cy="153.82394883633586" r="6.637237631854302" fill="rgb(203,195,60)" /><circle cx="329.24092584386096" cy="214.37621945185714" r="5.8067258278408005" fill="rgb(245,254,158)" /><circle cx="471.8194655379737" cy="137.28848974770702" r="5.919996627419782" fill="rgb(205,137,100)" /><circle cx="328.29164726795767" cy="311.4716687009138" r="5.195084839153456" fill="rgb(104,220,65)" /><circle cx="375.32132567378653" cy="233.85512004026268" r="5.32282826103922" fill="rgb(129,238,228)" /><circle cx="13.614717208876248" cy="211.07219283115492" r="7.129101296500521" fill="rgb(241,46,37)" /><circle cx="194.84406419566318" cy="367.93018723313344" r="7.346651753326135" fill="rgb(181,45,93)" /><circle cx="205.33585804626202" cy="358.41533103058146" r="5.8864157470316005" fill="rgb(241,48,198)" /><circle cx="21.69188047010223" cy="179.485382688175" r="5.62750803493026" fill="rgb(217,21,153)" /><circle cx="125.68929597872547" cy="339.76201932813956" r="7.1361435636568125" fill="rgb(199,11,223)" /><circle cx="55.1011612661067" cy="218.5463344836445" r="5.9914487818597015" fill="rgb(241,181,79)" /><circle cx="379.566043729971" cy="202.83575974413642" r="5.019980237913918" fill="rgb(147,253,231)" /><circle cx="75.67064731610223" cy="180.89549501217337" r="5.313625777036382" fill="rgb(34,224,151)" /><circle cx="208.87995257674007" cy="94.48655851988612" r="5.671399101878874" fill="rgb(105,73,252)" /><circle cx="433.7586486526419" cy="93.98303374561152" r="7.217778663408647" fill="rgb(1,114,36)" /><circle cx="408.30888347694867" cy="211.96281813345382" r="5.663328703058989" fill="rgb(112,177,220)" /><circle cx="221.77031593163287" cy="354.5925346827155" r="6.48738947058135" fill="rgb(79,82,73)" /><circle cx="202.95062411192578" cy="160.7445014404148" r="5.15301821507142" fill="rgb(12,35,99)" /><circle cx="422.61546629651053" cy="162.56385135709766" r="6.0591742318447945" fill="rgb(91,165,189)" /><circle cx="5.238058478399088" cy="106.04177346899681" r="5.9428483233664045" fill="rgb(229,218,26)" /><circle cx="408.06666013555287" cy="73.11726478677559" r="5.1887678032544935" fill="rgb(188,170,114)" /><circle cx="91.78499949164404" cy="51.5269399803719" r="6.353525879648683" fill="rgb(27,139,95)" /><circle cx="171.11965891143538" cy="185.9584836070693" r="5.169376523703194" fill="rgb(124,75,100)" /><circle cx="367.14950871521347" cy="244.17998577136277" r="5.134058962096119" fill="rgb(95,91,88)" /><circle cx="82.47515315547894" cy="39.16064882294123" r="6.496744803974893" fill="rgb(238,43,241)" /><circle cx="122.46569280988912" cy="269.4680819900699" r="8.285154310409004" fill="rgb(186,117,208)" /><circle cx="31.47219065966167" cy="253.60108087519401" r="8.612087404191056" fill="rgb(22,185,177)" /><circle cx="462.2319211913171" cy="230.02780188979952" r="5.324467412763728" fill="rgb(172,78,229)" /><circle cx="428.795178633439" cy="136.28333104011057" r="6.647004736670439" fill="rgb(148,15,8)" /><circle cx="51.092831801814896" cy="189.61517200654978" r="5.020253149780404" fill="rgb(58,158,98)" /><circle cx="66.87167728877557" cy="104.84950407666305" r="5.141335517900657" fill="rgb(91,238,37)" /><circle cx="339.0987810845815" cy="340.1334589861343" r="5.411228772843349" fill="rgb(149,131,22)" /><circle cx="462.8105120444774" cy="204.02368154882984" r="5.74158930105109" fill="rgb(182,196,215)" /><circle cx="441.63049036559414" cy="61.21472287930648" r="5.002646430687407" fill="rgb(143,106,41)" /><circle cx="183.82640397702926" cy="251.3897156833985" r="5.450476263603026" fill="rgb(214,133,245)" /><circle cx="115.36109171027881" cy="164.1224403660797" r="5.494937106401016" fill="rgb(45,254,227)" /><circle cx="275.84879960340317" cy="108.42004522005725" r="8.410405212360123" fill="rgb(231,143,45)" /><circle cx="140.90257615625862" cy="349.9418741862987" r="5.317246340962517" fill="rgb(226,249,131)" /><circle cx="210.85352664153817" cy="400.98065645343286" r="6.1544954783754" fill="rgb(190,223,218)" /><circle cx="109.30413790472964" cy="304.3907942648593" r="5.263663127736926" fill="rgb(94,252,70)" /><circle cx="358.0971200586978" cy="26.160391019715373" r="5.798149711247136" fill="rgb(17,245,72)" /><circle cx="384.0353660607946" cy="44.7885637658633" r="7.843324733795338" fill="rgb(246,214,160)" /><circle cx="241.54878669745057" cy="108.1036063058808" r="5.72194304030217" fill="rgb(240,217,31)" /><circle cx="178.0268195016415" cy="379.3259432795063" r="6.6708576948010965" fill="rgb(131,222,26)" /></svg>