<?xml version="1.0" encoding="UTF-8"?>
<!-- Generator: Adobe Illustrator 15.0.0, SVG Export Plug-In . SVG Version: 6.00 Build 0)  -->
<svg xmlns="http://www.w3.org/2000/svg" xmlns:xlink="http://www.w3.org/1999/xlink" version="1.1" id="Layer_1" x="0px" y="0px" width="23.875px" height="23.875px" viewBox="0.125 0 23.875 23.875" xml:space="preserve">
<title>Tableau icon</title>
<circle fill="#FFFFFF" cx="12.063" cy="11.938" r="11.938"></circle>
<path d="M11.757,1.481v1.948h-1.744v0.513h1.744V5.89h0.614V3.942h1.744V3.429h-1.744V1.481h-0.307H11.757z M17.086,3.481v1.435  v1.435h-2.615v0.82h2.615v2.818h0.923l0.009-1.398l0.017-1.393l1.295-0.018l1.294-0.009v-0.82h-2.612v-2.87h-0.462H17.086z   M6.118,3.534v2.821h-2.64v0.817h2.64v2.82h0.871V7.172h2.663V6.354H6.989v-2.82H6.555H6.118z M11.5,8.194v3.177H8.579v1.05H11.5  v3.18h1.133v-3.18h2.926v-1.05h-2.928V8.194h-0.563H11.5z M20.094,9.565v1.963h-1.779v0.717h1.779v2h0.784v-2h1.795v-0.717h-1.795  V9.565h-0.372H20.094z M3.197,9.68v1.922H1.453v0.549h1.744v1.938h0.59v-1.938h1.768v-0.548H3.759V9.679H3.478L3.197,9.68z   M17.086,13.674v2.876h-2.667v0.821h2.667v2.844h0.948v-2.844h2.639V16.55h-2.639v-2.876h-0.471H17.086z M6.067,13.681v2.869H3.453  v0.821h2.614v2.819h0.974v-2.819h2.612V16.55H7.041v-2.869H6.555H6.067z M11.651,17.728l0.002,0.976v0.974H9.91v0.717h1.743v2h0.82  l0.011-0.99l0.016-1.01h1.739v-0.717h-1.767v-1.949h-0.41H11.651z"></path>
</svg>
